<svg width="836" height="490" viewBox="0 0 836 490" fill="none" xmlns="http://www.w3.org/2000/svg">
<rect width="836" height="490" rx="20" fill="black"/>
<rect x="24" y="24" width="425" height="136" fill="#005DE9"/>
<rect x="24" y="176" width="136" height="136" fill="#FFAE1B"/>
<g filter="url(#filter0_d)">
<path d="M90.0979 214.854C90.6966 213.011 93.3034 213.011 93.9021 214.854L100.498 235.156L121.845 235.156C123.782 235.156 124.588 237.635 123.02 238.774L105.751 251.321L112.347 271.622C112.946 273.465 110.837 274.997 109.269 273.858L92 261.311L74.7306 273.858C73.1632 274.997 71.0542 273.465 71.6529 271.622L78.2492 251.321L60.9798 238.774C59.4124 237.635 60.2179 235.156 62.1554 235.156L83.5016 235.156L90.0979 214.854Z" fill="#D2D1B8"/>
<path d="M99.5474 235.465L99.7719 236.156H100.498L121.845 236.156C122.813 236.156 123.216 237.395 122.432 237.965L105.163 250.512L104.575 250.939L104.8 251.63L111.396 271.931C111.695 272.852 110.641 273.618 109.857 273.049L92.5878 260.502L92 260.075L91.4122 260.502L74.1428 273.049C73.3591 273.618 72.3046 272.852 72.6039 271.931L79.2003 251.63L79.4248 250.939L78.837 250.512L61.5676 237.965C60.7839 237.395 61.1866 236.156 62.1554 236.156L83.5016 236.156H84.2281L84.4526 235.465L91.0489 215.163C91.3483 214.242 92.6517 214.242 92.9511 215.163L99.5474 235.465Z" stroke="black" stroke-width="2"/>
</g>
<rect x="676" y="176" width="136" height="136" fill="#FF5B2B"/>
<g clip-path="url(#clip0)">
<rect width="136" height="136" transform="translate(676 24)" fill="#005CE7"/>
<path d="M925.575 38.0028C925.351 37.4769 925.048 36.8481 924.697 36.165C924.328 35.494 923.904 34.7746 923.474 34.0552C920.828 29.7025 917.626 25.2833 914.054 21.3417C901.08 6.93559 884.208 -4.03074 865.561 -9.61668C856.553 -12.3129 847.133 -13.7094 837.707 -13.5704C835.352 -13.5401 832.997 -13.4132 830.654 -13.1714L828.898 -13.0081C828.311 -12.9537 827.73 -12.851 827.149 -12.7724C825.986 -12.5971 824.812 -12.4641 823.655 -12.2464C819.012 -11.4484 814.441 -10.2152 809.991 -8.66755L808.327 -8.06906C807.77 -7.87561 807.219 -7.67006 806.68 -7.43429L803.423 -6.06199L800.238 -4.52646C799.179 -4.01865 798.162 -3.41411 797.121 -2.85794C793.01 -0.548599 789.093 2.10532 785.424 5.06152C779.231 10.0852 773.825 16.0278 769.284 22.5629C768.54 21.5533 767.819 20.5377 767.141 19.4979C765.004 16.2636 763.267 12.8238 762.231 9.2026C761.208 5.58142 760.899 1.79096 761.747 -1.74559C762.564 -5.28818 764.496 -8.52246 767.117 -11.2006C771.01 -15.2026 776.107 -18.1225 781.417 -20.4258C787.858 -23.1886 794.705 -25.111 801.631 -26.6344C808.569 -28.1518 815.616 -29.2521 822.699 -30.1528C825.526 -30.5156 828.698 -30.9387 831.047 -31.368C832.646 -31.6642 833.33 -32.0874 833.778 -32.4017C833.869 -32.4682 831.132 -32.3776 829.697 -32.2204C823.776 -31.5796 817.825 -30.7211 812.014 -29.8264C806.159 -28.9317 800.335 -27.8254 794.602 -26.3684C788.875 -24.8934 783.221 -23.0858 777.869 -20.5649C776.531 -19.9361 775.217 -19.2591 773.934 -18.5215C772.65 -17.7961 771.397 -17.0041 770.198 -16.1457C767.783 -14.4469 765.573 -12.4338 763.739 -10.1124C761.935 -7.77283 760.53 -5.08264 759.84 -2.18085C759.489 -0.736008 759.301 0.75116 759.247 2.23832C759.216 3.73153 759.337 5.2187 759.549 6.69981C759.931 9.05751 760.53 11.391 761.462 13.5734C763.152 17.509 765.47 21.0818 767.995 24.4612C767.613 25.0415 767.226 25.6158 766.863 26.2022C760.7 36.1711 756.607 47.3732 754.718 58.9138C753.774 64.6871 753.374 70.5451 753.501 76.385C753.622 82.2248 754.198 87.9679 754.749 93.6929C755.312 99.4179 755.911 105.107 756.22 110.789C756.274 111.738 756.31 112.694 756.347 113.643C741.533 106.684 726.549 100.174 711.862 93.1004C703.659 89.183 695.583 85.0359 687.682 80.5865C687.01 80.2117 686.344 79.8369 685.678 79.456C686.411 78.1925 687.18 76.9472 687.985 75.72C689.383 73.5739 690.885 71.4882 692.453 69.4328C695.752 65.0922 699.306 60.8967 702.787 56.6045C706.268 52.3122 709.658 47.8628 712.625 43.1353C715.603 38.4199 718.231 33.4688 720.374 28.306C722.511 23.1372 724.176 17.7508 725.114 12.2072C726.392 4.39048 726.331 -3.71638 724.152 -11.4666C721.905 -19.1563 717.619 -26.1931 711.898 -31.7911C710.457 -33.1816 708.938 -34.4874 707.321 -35.6844C705.699 -36.8693 703.998 -37.9453 702.224 -38.8945C698.658 -40.7625 694.783 -42.1288 690.758 -42.6789C686.738 -43.2834 682.591 -43.0114 678.656 -42.0562C674.708 -41.095 670.973 -39.4083 667.589 -37.238C660.802 -32.8672 655.444 -26.7251 651.195 -20.0691C649.07 -16.7321 647.217 -13.2197 645.613 -9.61668C644.008 -6.01363 642.628 -2.30781 641.514 1.48265C639.274 9.05147 638.13 17.0193 638.608 24.9811C639.074 32.9186 641.284 40.8683 645.316 47.7722C648.034 52.5843 651.449 56.9672 655.257 60.9088C659.077 64.8443 663.278 68.3688 667.661 71.597C672.123 74.8797 676.761 77.8479 681.501 80.6349C681.089 81.3905 680.696 82.1281 680.345 82.8293C678.662 86.0394 677.318 89.4249 676.27 92.8828C675.235 96.3468 674.503 99.8894 674.018 103.45C673.056 110.59 673.013 117.76 673.667 124.911C673.994 128.279 674.527 131.628 675.271 134.941C669.005 134.427 662.631 134.675 656.34 136.023C650.42 137.304 644.553 139.65 639.71 143.579C637.301 145.532 635.164 147.872 633.487 150.501C631.779 153.119 630.562 156.021 629.721 158.977C628.044 164.926 627.862 171.05 628.068 177.004L628.165 179.241L628.322 181.466L628.643 185.915L629.128 190.346L629.37 192.565C629.467 193.303 629.582 194.034 629.691 194.772L630.345 199.185C630.593 200.648 630.889 202.111 631.156 203.568C631.652 206.5 632.403 209.383 633.045 212.285C634.528 218.046 636.15 223.777 638.233 229.357C639.195 232.174 640.364 234.913 641.49 237.67L641.914 238.704L642.38 239.719L643.312 241.75L644.245 243.782L644.711 244.797L645.219 245.789C646.587 248.437 647.907 251.109 649.433 253.666L650.541 255.606C650.91 256.253 651.279 256.9 651.691 257.523L654.088 261.295C658.072 267.316 662.461 273.072 667.262 278.47C672.093 283.844 677.39 288.856 683.299 293.118C689.196 297.374 695.734 300.868 702.799 302.924C709.846 304.967 717.347 305.59 724.636 304.399C730.993 303.335 737.198 300.838 742.271 296.715C747.314 292.604 751.152 287.073 753.205 280.888C754.222 277.799 754.779 274.541 754.755 271.264C754.749 267.987 754.077 264.693 752.878 261.658C751.679 258.611 749.972 255.818 748.035 253.261C746.091 250.698 743.924 248.358 741.702 246.115C737.797 242.161 733.644 238.486 730.109 234.429C728.371 232.386 726.827 230.18 725.52 227.84C724.218 225.506 723.141 223.04 722.438 220.495C721.736 217.95 721.397 215.314 721.645 212.745C721.881 210.175 722.741 207.703 724.212 205.617C724.939 204.559 725.828 203.652 726.791 202.818C727.306 202.443 727.79 202.02 728.353 201.712C728.632 201.549 728.892 201.361 729.176 201.222L730.042 200.793C732.373 199.693 734.988 199.185 737.598 199.088C739.862 199.04 742.138 199.342 744.305 199.983C744.578 200.067 744.85 200.134 745.117 200.225L745.91 200.521C746.442 200.696 746.957 200.968 747.472 201.21C747.986 201.458 748.513 201.688 749.021 201.954L750.499 202.836L751.237 203.278L751.933 203.779L753.332 204.789C753.78 205.152 754.21 205.533 754.652 205.907C755.094 206.282 755.536 206.651 755.935 207.068L757.17 208.289C757.576 208.7 757.945 209.154 758.339 209.583C759.132 210.435 759.834 211.366 760.56 212.279C763.412 215.985 765.815 220.066 768.201 224.176C770.586 228.293 772.905 232.495 775.689 236.485C779.152 241.43 783.184 245.982 787.822 249.906C791.327 252.844 795.159 255.419 799.306 257.426C803.447 259.433 807.933 260.86 812.583 261.35C817.22 261.851 821.997 261.416 826.458 259.953C830.951 258.544 835.049 256.072 838.542 253.001C840.891 251.006 842.925 248.684 844.76 246.236C846.618 243.8 848.15 241.14 849.494 238.407L850.463 236.334L851.304 234.206C851.607 233.504 851.819 232.767 852.061 232.042C852.291 231.316 852.557 230.597 852.727 229.853C853.586 226.915 854.034 223.874 854.374 220.852C854.482 219.334 854.628 217.817 854.616 216.293C854.676 214.77 854.591 213.246 854.537 211.729C854.325 208.694 853.998 205.659 853.362 202.685L853.145 201.567L852.878 200.46L852.333 198.248C851.891 196.797 851.516 195.322 850.989 193.895C850.045 191.005 848.84 188.212 847.545 185.474C843.591 177.246 838.161 169.847 832.077 163.173C830.654 161.601 829.177 160.071 827.663 158.59C828.735 157.84 829.776 157.042 830.769 156.172C831.998 155.084 833.178 153.923 834.22 152.623C834.765 152.001 835.231 151.299 835.721 150.628C836.169 149.921 836.629 149.226 837.011 148.476C838.633 145.532 839.535 142.207 839.838 138.918C840.141 135.612 839.868 132.311 839.202 129.131C838.863 127.547 838.433 125.957 837.907 124.452C837.64 123.702 837.398 122.934 837.113 122.191L836.236 119.972C833.766 114.108 830.569 108.643 827.179 103.414C823.008 96.9695 818.6 90.8213 814.689 84.3709C810.694 77.8661 806.529 71.464 802.212 65.1647C793.579 52.5782 784.226 40.4149 774.291 28.8682C773.213 27.5866 772.148 26.299 771.113 24.9992C773.595 21.3176 776.361 17.8294 779.382 14.583C785.685 7.82426 793.21 2.24437 801.431 -1.96926C811.378 -7.0232 822.396 -9.88268 833.548 -10.6142L833.542 -10.6323C843.525 -11.255 853.605 -10.0701 863.243 -7.36175C872.893 -4.65946 882.083 -0.4156 890.534 4.93456C902.43 12.4973 912.952 22.2062 921.125 33.7469C923.371 36.9388 924.988 39.2663 925.75 39.5565C926.168 39.6955 926.029 39.0547 925.575 38.0028ZM665.101 65.7088C658.145 60.0685 651.951 53.4246 647.689 45.6684C645.57 41.7933 643.942 37.6703 642.949 33.3781C641.944 29.0919 641.532 24.6607 641.629 20.2415C641.787 14.45 642.749 8.67061 644.39 3.08468C644.771 1.68215 645.262 0.303795 645.71 -1.0806C645.952 -1.76977 646.218 -2.44685 646.466 -3.12998C646.715 -3.81311 646.981 -4.49623 647.265 -5.16123C648.343 -7.86956 649.614 -10.5053 650.958 -13.0746C652.308 -15.65 653.858 -18.1044 655.493 -20.4984C657.152 -22.8742 658.98 -25.111 660.923 -27.239C662.903 -29.3307 665.034 -31.2531 667.31 -32.9881C669.617 -34.6748 672.075 -36.1196 674.66 -37.2804C677.99 -38.7252 681.604 -39.6199 685.224 -39.7227C688.851 -39.8738 692.489 -39.2391 695.94 -38.0542C702.86 -35.6239 708.895 -30.9206 713.63 -25.2561C715.004 -23.6178 716.293 -21.5563 717.395 -19.5553C718.897 -16.7986 720.15 -13.8968 721.016 -10.8923C721.457 -9.393 721.797 -7.86956 722.063 -6.33403C722.19 -5.56627 722.263 -4.77433 722.366 -3.99447C722.456 -3.21462 722.584 -2.43476 722.596 -1.64281C723.249 7.52199 721.506 16.8198 718.134 25.4889C714.774 34.1821 709.894 42.295 704.064 49.6402C698.961 56.0785 693.427 62.1058 688.614 69.0821C686.756 71.7481 684.764 74.8917 683.008 77.9144C676.749 74.2449 670.701 70.2549 665.101 65.7088ZM677.203 127.184C676.597 122.106 676.47 116.949 676.712 111.823C676.979 106.703 677.645 101.6 678.849 96.637C680.054 91.6737 681.761 86.8435 684.098 82.3276C684.122 82.2792 684.147 82.2369 684.171 82.1946C687.906 84.3286 691.684 86.3659 695.474 88.373C714.623 98.4023 734.486 106.817 753.943 115.922C754.773 116.309 755.596 116.696 756.419 117.089C756.456 120.661 756.335 124.216 755.978 127.74C755.669 130.533 755.227 133.314 754.627 136.053C754.004 138.785 753.205 141.47 752.23 144.081C751.261 146.699 750.032 149.202 748.64 151.596C747.78 153.089 746.8 154.509 745.746 155.864C731.217 151.124 716.923 145.345 702.309 140.744C694.971 138.435 687.476 136.591 679.812 135.466C679.412 135.412 679.007 135.358 678.607 135.309C677.99 132.625 677.53 129.911 677.203 127.184ZM759.368 118.479C767.395 122.312 775.338 126.29 783.1 130.582L786.659 132.559C787.846 133.218 789.002 133.931 790.171 134.614L793.676 136.688C794.85 137.371 795.97 138.126 797.121 138.846C801.728 141.705 806.226 144.734 810.561 147.968C814.804 151.118 818.897 154.461 822.759 158.046C822.372 158.258 821.984 158.463 821.591 158.663C820.229 159.34 818.842 159.968 817.414 160.5C815.985 161.038 814.508 161.468 813.061 161.957C811.59 162.374 810.088 162.713 808.611 163.1C807.098 163.366 805.596 163.674 804.083 163.91C798.005 164.793 791.817 164.901 785.66 164.478C773.334 163.614 761.184 160.688 749.312 157.006C749.052 156.928 748.797 156.837 748.543 156.758C749.306 155.725 750.032 154.655 750.704 153.566C752.938 149.933 754.67 146.022 755.971 141.989C758.393 134.378 759.344 126.386 759.368 118.479ZM743.712 158.288C741.418 160.803 738.796 162.955 735.902 164.714C732.966 166.437 729.776 167.713 726.47 168.583L725.223 168.891C724.811 169 724.394 169.103 723.97 169.151L721.433 169.562L718.872 169.768C718.449 169.816 718.019 169.816 717.589 169.81H716.306C712.885 169.756 709.464 169.303 706.177 168.365C702.902 167.398 699.766 165.984 696.902 164.146C694.027 162.332 691.46 159.993 689.232 157.399C686.992 154.8 685.079 151.916 683.481 148.857C681.882 145.792 680.641 142.534 679.63 139.209C679.588 139.076 679.552 138.943 679.515 138.804C690.285 140.291 700.856 143.289 711.244 146.814C720.785 150.042 730.29 153.578 739.88 156.952C741.157 157.405 742.435 157.846 743.712 158.288ZM834.026 170.064C837.398 174.242 840.383 178.703 842.895 183.418C845.432 188.122 847.442 193.097 848.913 198.212C850.36 203.175 851.183 208.301 851.383 213.446C851.589 218.578 851.098 223.759 849.803 228.68C848.543 233.631 846.358 238.329 843.567 242.579C842.114 244.664 840.57 246.696 838.76 248.473C837.907 249.41 836.92 250.208 835.981 251.048C835.509 251.471 834.982 251.81 834.48 252.197C833.971 252.566 833.481 252.971 832.936 253.279L831.338 254.276C830.799 254.603 830.224 254.851 829.673 255.141C828.577 255.758 827.379 256.138 826.228 256.616C825.641 256.828 825.03 256.973 824.436 257.154C823.837 257.329 823.238 257.511 822.62 257.62L821.7 257.813L820.774 257.952C820.156 258.055 819.533 258.115 818.909 258.17C813.921 258.617 808.847 257.734 804.107 255.945C799.355 254.156 794.923 251.483 790.909 248.279C786.895 245.075 783.275 241.345 780.109 237.277C778.523 235.233 777.07 233.13 775.708 230.893C774.333 228.674 773.02 226.401 771.694 224.098C769.048 219.509 766.342 214.842 763.03 210.496C761.378 208.319 759.513 206.276 757.503 204.36C755.427 202.51 753.181 200.805 750.711 199.457C750.111 199.094 749.451 198.834 748.822 198.52C748.186 198.224 747.562 197.903 746.872 197.673C745.534 197.141 744.136 196.803 742.737 196.513C739.922 195.999 737.028 195.963 734.183 196.416C731.344 196.9 728.553 197.939 726.101 199.596C723.673 201.295 721.657 203.604 720.368 206.264C719.06 208.936 718.521 211.916 718.57 214.788C718.618 217.672 719.199 220.483 720.107 223.131C721.022 225.779 722.226 228.293 723.661 230.657C725.096 233.021 726.743 235.252 728.589 237.307C732.252 241.339 736.217 244.894 739.874 248.624C742.41 251.187 744.772 253.859 746.745 256.743C748.731 259.608 750.22 262.764 751.001 266.059C751.776 269.348 751.855 272.818 751.201 276.179C750.565 279.54 749.3 282.799 747.556 285.767C745.807 288.741 743.573 291.431 740.97 293.68C738.36 295.917 735.345 297.658 732.125 298.958C725.683 301.557 718.491 302.247 711.523 301.364C706.135 300.735 700.91 299.091 695.97 296.782C691.03 294.466 686.417 291.431 682.112 288.004C673.54 281.07 666.172 272.57 659.803 263.496C659.016 262.347 658.193 261.235 657.442 260.062L655.22 256.537C654.851 255.945 654.47 255.365 654.119 254.772L653.089 252.959L651.031 249.331C648.458 244.404 645.988 239.411 643.942 234.236C641.781 229.103 640.055 223.808 638.408 218.488C636.919 213.126 635.515 207.727 634.534 202.244C633.438 196.779 632.766 191.241 632.167 185.704L631.858 181.538C631.755 180.148 631.646 178.757 631.592 177.373C631.477 174.604 631.452 171.848 631.61 169.121C631.761 166.395 632.124 163.704 632.754 161.105C633.057 159.799 633.474 158.536 633.922 157.29C634.419 156.063 634.94 154.848 635.599 153.711C636.865 151.408 638.511 149.335 640.424 147.527C642.356 145.738 644.541 144.202 646.914 142.975C651.655 140.49 657.006 139.13 662.425 138.507C666.953 138 671.554 138 676.125 138.417C676.93 141.343 677.935 144.22 679.182 147.001C682.276 153.977 686.871 160.464 693.052 165.18C705.021 174.302 722.154 175.336 734.861 168.414C736.06 167.694 737.434 167.029 738.711 166.123C739.038 165.911 739.365 165.693 739.698 165.482L740.195 165.155L740.661 164.787C741.278 164.297 741.89 163.807 742.495 163.33C743.972 162.084 745.328 160.706 746.582 159.249C756.183 162.417 766.009 165.095 776.095 166.624C782.306 167.561 788.615 168.057 794.941 167.882C801.262 167.7 807.612 166.842 813.739 165.034C817.638 163.892 821.506 162.35 825.09 160.259C828.25 163.348 831.259 166.606 834.026 170.064ZM770.102 27.1997C771.772 29.2975 773.492 31.3408 775.193 33.3962L777.724 36.4854L780.212 39.5988C786.799 47.9414 792.992 56.544 798.937 65.3582C801.909 69.7653 804.84 74.2691 807.733 78.7427C809.671 81.7291 811.547 84.7336 813.448 87.7563C815.361 90.7911 817.371 93.7473 819.375 96.6914C823.395 102.574 827.421 108.425 830.708 114.676C832.755 118.558 834.516 122.596 835.751 126.773C836.962 130.926 837.477 135.303 836.908 139.535C836.375 143.773 834.541 147.739 831.768 150.967C829.958 153.083 827.802 154.896 825.46 156.444C825.29 156.287 825.12 156.124 824.951 155.96C822.469 153.657 819.908 151.444 817.268 149.335C811.995 145.103 806.48 141.191 800.795 137.582C789.456 130.298 777.584 123.896 765.507 118.013C763.454 117.01 761.396 116.025 759.331 115.045C759.126 107.307 758.217 99.6416 757.491 92.0244C757.055 87.3634 756.631 82.7084 756.456 78.0656C756.25 73.4409 756.456 68.804 756.946 64.2096C757.915 55.0085 760.397 45.9827 764.15 37.5434C765.791 33.8617 767.716 30.3131 769.878 26.9095C769.944 27.0063 770.023 27.103 770.102 27.1997Z" fill="#FEB32F"/>
</g>
<g clip-path="url(#clip1)">
<rect width="270" height="136" transform="translate(308 328)" fill="#FFAE1B"/>
<g clip-path="url(#clip2)">
<path d="M380.791 348H493.323V445.819H380.791V348Z" fill="#E5DCD7"/>
<path d="M420.395 382.394H453.756V411.394H420.395V382.394Z" fill="#FFAE1B"/>
<path d="M437.282 396.32V274H295V397.68H435.718V520H578V396.32H437.282ZM576.436 421.124H549.465V397.68H576.436V421.124ZM437.282 421.804H464.253V445.588H437.282V421.804ZM493.178 470.052V446.268H520.54V470.052H493.178ZM520.54 470.732V494.517H493.178V470.732H520.54ZM492.396 470.052H465.035V446.268H492.396V470.052ZM493.178 445.588V421.804H520.54V445.588H493.178ZM521.322 446.268H548.684V470.052H521.322V446.268ZM521.322 445.588V421.804H548.684V445.588H521.322ZM521.322 421.124V397.68H548.684V421.124H521.322ZM520.54 421.124H493.178V397.68H520.54V421.124ZM492.396 421.124H465.035V397.68H492.396V421.124ZM492.396 421.804V445.588H465.035V421.804H492.396ZM437.282 446.268H464.253V470.052H437.282V446.268ZM437.282 470.732H464.253V494.517H437.282V470.732ZM465.035 470.732H492.396V494.517H465.035V470.732ZM492.396 495.196V518.641H465.035V495.196H492.396ZM493.178 495.196H520.54V518.641H493.178V495.196ZM521.322 495.196H548.684V518.641H521.322V495.196ZM521.322 494.517V470.732H548.684V494.517H521.322ZM549.465 470.732H576.436V494.517H549.465V470.732ZM549.465 470.052V446.268H576.436V470.052H549.465ZM549.465 445.588V421.804H576.436V445.588H549.465ZM464.253 397.68V421.124H437.282V397.68H464.253ZM435.718 347.732H408.747V323.948H435.718V347.732ZM352.46 347.732V323.948H379.822V347.732H352.46ZM379.822 348.412V372.196H352.46V348.412H379.822ZM351.678 347.732H324.316V323.948H351.678V347.732ZM352.46 323.268V299.483H379.822V323.268H352.46ZM380.604 323.948H407.965V347.732H380.604V323.948ZM435.718 323.268H408.747V299.483H435.718V323.268ZM407.965 323.268H380.604V299.483H407.965V323.268ZM380.604 298.804V275.359H407.965V298.804H380.604ZM379.822 298.804H352.46V275.359H379.822V298.804ZM351.678 298.804H324.316V275.359H351.678V298.804ZM351.678 299.483V323.268H324.316V299.483H351.678ZM323.535 323.268H296.564V299.483H323.535V323.268ZM323.535 323.948V347.732H296.564V323.948H323.535ZM323.535 348.412V372.196H296.564V348.412H323.535ZM324.316 348.412H351.678V372.196H324.316V348.412ZM351.678 372.876V396.32H324.316V372.876H351.678ZM352.46 372.876H379.822V396.32H352.46V372.876ZM380.604 372.876H407.965V396.32H380.604V372.876ZM380.604 372.196V348.412H407.965V372.196H380.604ZM408.747 348.412H435.718V372.196H408.747V348.412ZM435.718 298.804H408.747V275.359H435.718V298.804ZM323.535 275.359V298.804H296.564V275.359H323.535ZM296.564 372.876H323.535V396.32H296.564V372.876ZM408.747 396.32V372.876H435.718V396.32H408.747ZM437.282 495.196H464.253V518.641H437.282V495.196ZM549.465 518.641V495.196H576.436V518.641H549.465Z" fill="#FF5B2B"/>
</g>
</g>
<rect x="175" y="176" width="274" height="136" fill="#FF5B2B"/>
<g clip-path="url(#clip3)">
<rect width="195" height="136" transform="translate(465 176)" fill="#008C26"/>
<path d="M1121.93 461.676C1114.2 409.258 1094.19 367.136 1060.76 332.894C1033.14 304.603 995.533 281.319 945.807 261.718C904.02 245.25 857.834 232.838 813.169 220.841C760.677 206.736 706.391 192.156 660.3 171.088C577.087 133.063 515.592 126.817 477.527 152.517C444.49 174.817 429.3 220.58 432.393 288.543C435.499 356.914 456.486 432.173 473.544 483.272C493.547 543.194 519.729 604.255 543.588 646.611C566.698 687.641 599.387 739.115 647.467 773.244C678.529 795.296 715.61 809.983 757.678 816.899C775.961 819.905 794.832 821.411 814.173 821.411C834.999 821.411 856.361 819.67 878.105 816.182C916.719 809.99 953.278 795.068 986.75 771.831C1018.41 749.86 1045.9 721.516 1068.44 687.595C1113.58 619.679 1133.08 537.337 1121.93 461.676ZM1066.77 686.483C1044.36 720.19 1017.05 748.354 985.599 770.178C952.374 793.24 916.096 808.049 877.777 814.194C836.064 820.882 795.763 821.123 757.999 814.917C716.239 808.049 679.439 793.475 648.625 771.604C623.54 753.796 589.131 723.383 545.335 645.627C521.537 603.371 495.408 542.445 475.445 482.636C458.428 431.658 437.494 356.586 434.394 288.449C431.342 221.236 446.23 176.062 478.645 154.178C493.654 144.049 512.405 138.988 534.812 138.988C568.324 138.988 610.004 150.308 659.463 172.916C705.709 194.05 760.075 208.657 812.646 222.783C857.258 234.766 903.383 247.164 945.07 263.592C995.219 283.355 1031.52 305.821 1059.32 334.3C1092.45 368.227 1112.28 409.988 1119.94 461.97C1131.02 537.143 1111.64 618.976 1066.77 686.483Z" fill="#FEB32F"/>
<path d="M1039.82 349.831C1013.9 323.214 978.643 301.383 932.036 283.1C893.108 267.81 850.109 256.403 808.53 245.363C787.261 239.72 765.277 233.882 744.236 227.63C738.064 225.795 732.092 223.961 726.489 222.174C702.596 214.555 682.305 206.87 664.438 198.669C569.824 155.329 505.577 155.791 473.471 200.048C456.252 223.867 448.567 260.131 450.616 307.836C452.564 355.662 464.587 415.102 485.373 479.724C504.687 539.78 530.688 601.283 554.922 644.248C576.572 682.661 607.193 730.861 652.193 762.847C694.168 792.698 748.266 808.196 808.382 808.196C827.716 808.196 847.686 806.589 868.064 803.349C903.732 797.692 937.539 784.056 968.555 762.821C997.924 742.71 1023.56 716.702 1044.75 685.506C1088.47 621.205 1107.51 542.893 1096.99 470.646C1089.8 421.455 1071.1 381.938 1039.82 349.831ZM1043.08 684.368C1022.04 715.357 996.578 741.191 967.417 761.154C936.649 782.221 903.116 795.744 867.743 801.354C828.727 807.567 791.024 807.747 755.69 801.883C716.628 795.403 682.198 781.712 653.358 761.201C629.894 744.518 597.694 716.04 556.676 643.257C532.509 600.399 506.568 539.037 487.288 479.101C466.555 414.654 454.572 355.401 452.624 307.749C450.589 260.513 458.154 224.671 475.097 201.227C490.916 179.416 514.816 168.517 546.574 168.517C577.972 168.517 617.061 179.182 663.601 200.497C681.535 208.731 701.907 216.443 725.88 224.088C731.496 225.876 737.481 227.717 743.667 229.558C764.728 235.817 786.732 241.661 808.014 247.305C849.54 258.324 892.479 269.718 931.3 284.968C977.639 303.143 1012.66 324.82 1038.39 351.23C1069.35 383.029 1087.87 422.178 1094.99 470.921C1105.45 542.679 1086.53 620.476 1043.08 684.368Z" fill="#FEB32F"/>
<path d="M1018.88 366.761C994.656 341.818 961.739 321.446 918.252 304.476C882.162 290.357 842.336 279.94 803.823 269.865C783.706 264.603 762.906 259.161 743.01 253.283C737.24 251.583 731.67 249.875 726.448 248.215C704.249 241.159 685.317 233.976 668.574 226.257C622.63 205.143 584.029 194.981 553.837 196.025C526.202 196.989 504.914 207.352 490.554 226.833C474.461 248.838 467.157 282.578 468.844 327.123C471 384.013 487.555 445.984 501.071 487.958C519.12 544.018 543.488 601.557 566.262 641.871C586.453 677.673 615.005 722.587 656.919 752.431C696.169 780.4 746.752 794.934 802.933 794.927C820.787 794.927 839.217 793.461 858.022 790.489C891.32 785.267 922.884 772.574 951.838 752.759C979.286 733.974 1003.26 709.613 1023.08 680.365C1063.9 620.288 1081.74 547.111 1072.03 479.583C1065.38 433.653 1047.99 396.746 1018.88 366.761ZM1021.42 679.247C1001.73 708.287 977.94 732.461 950.7 751.112C922.001 770.76 890.711 783.346 857.707 788.514C839.002 791.473 820.686 792.932 802.926 792.932C747.174 792.932 696.986 778.533 658.077 750.804C636.233 735.246 606.248 708.696 568.003 640.894C545.295 600.687 520.981 543.288 502.979 487.349C489.503 445.495 472.995 383.712 470.846 327.056C469.179 282.973 476.349 249.655 492.161 228.031C506.139 209.073 526.912 198.984 553.898 198.04C555.297 197.993 556.709 197.966 558.142 197.966C587.37 197.966 624.203 208.088 667.731 228.078C684.547 235.83 703.553 243.047 725.839 250.13C731.074 251.797 736.664 253.504 742.441 255.211C762.364 261.095 783.184 266.545 803.314 271.813C841.774 281.875 881.539 292.278 917.522 306.35C960.742 323.214 993.424 343.438 1017.44 368.167C1046.24 397.837 1063.46 434.376 1070.04 479.885C1079.68 546.917 1061.96 619.579 1021.42 679.247Z" fill="#FEB32F"/>
<path d="M997.944 383.712C975.43 360.448 944.856 341.53 904.482 325.865C871.217 312.911 834.545 303.478 799.077 294.354C780.132 289.48 760.544 284.439 741.806 278.943C736.457 277.376 731.282 275.796 726.429 274.263C705.903 267.763 688.337 261.082 672.725 253.845C630.142 234.217 594.393 224.677 566.477 225.481C540.83 226.217 521.042 235.69 507.646 253.638C492.623 273.768 485.708 304.984 487.087 346.437C488.848 399.537 504.212 457.204 516.784 496.226C533.554 548.289 556.295 601.858 577.617 639.528C596.348 672.713 622.831 714.352 661.659 742.054C698.184 768.149 745.253 781.706 797.497 781.706C813.872 781.706 830.769 780.374 847.994 777.676C908.606 768.31 963.099 731.946 1001.43 675.27C1019.67 648.405 1033.49 617.497 1041.41 585.885C1049.67 552.942 1051.58 520.199 1047.1 488.574C1040.98 445.863 1024.9 411.567 997.944 383.712ZM1039.45 585.396C1031.59 616.78 1017.87 647.468 999.758 674.139C961.74 730.346 907.729 766.409 847.672 775.681C776.008 786.901 710.355 774.375 662.811 740.407C642.587 725.981 614.818 701.358 579.351 638.531C558.096 600.975 535.415 547.539 518.685 495.603C506.146 456.702 490.836 399.236 489.082 346.363C487.723 305.386 494.505 274.591 509.246 254.836C522.253 237.41 541.52 228.205 566.524 227.489C594.132 226.686 629.573 236.178 671.875 255.673C687.567 262.95 705.207 269.658 725.813 276.185C730.68 277.731 735.868 279.311 741.237 280.878C760.008 286.38 779.616 291.428 798.575 296.308C833.982 305.42 870.594 314.839 903.752 327.746C943.852 343.297 974.192 362.062 996.498 385.117C1023.15 412.659 1039.05 446.593 1045.1 488.862C1049.54 520.219 1047.64 552.701 1039.45 585.396Z" fill="#FEB32F"/>
<path d="M977.003 400.655C956.197 379.072 927.966 361.6 890.704 347.253C860.238 335.458 826.692 326.996 794.257 318.822C776.503 314.343 758.147 309.717 740.587 304.61C735.653 303.177 730.88 301.731 726.388 300.312C707.536 294.367 691.342 288.188 676.862 281.433C637.653 263.291 604.756 254.381 579.129 254.943C555.498 255.459 537.195 264.034 524.73 280.429C510.785 298.772 504.252 327.471 505.316 365.73C506.682 415.042 520.847 468.397 532.482 504.474C547.98 552.54 569.094 602.146 588.95 637.165C606.222 667.732 630.637 706.098 666.379 731.658C700.179 755.872 743.734 768.464 792.041 768.464C806.943 768.464 822.293 767.266 837.945 764.842C893.945 756.34 944.307 722.714 979.754 670.155C996.564 645.359 1009.34 616.807 1016.69 587.579C1024.37 557.079 1026.2 526.786 1022.14 497.538C1016.57 458.074 1001.8 426.382 977.003 400.655ZM1014.76 587.09C1007.46 616.091 994.79 644.422 978.108 669.031C942.975 721.114 893.094 754.439 837.651 762.854C771.757 773.057 711.346 761.395 667.557 730.024C648.953 716.722 623.4 694.028 590.704 636.181C570.902 601.263 549.854 551.804 534.397 503.858C522.795 467.908 508.683 414.747 507.324 365.677C506.273 327.886 512.673 299.615 526.337 281.647C538.414 265.768 556.194 257.46 579.183 256.951C604.508 256.396 637.097 265.246 676.025 283.254C690.579 290.049 706.86 296.255 725.792 302.226C730.298 303.652 735.084 305.098 740.032 306.538C757.625 311.652 776.001 316.285 793.768 320.77C826.149 328.937 859.635 337.379 889.988 349.128C926.975 363.367 954.965 380.679 975.564 402.048C1000.06 427.453 1014.65 458.784 1020.16 497.813C1024.19 526.806 1022.36 556.838 1014.76 587.09Z" fill="#FEB32F"/>
<path d="M956.076 417.639C936.976 397.73 911.089 381.717 876.94 368.676C849.258 358.025 818.812 350.534 789.369 343.29C772.834 339.22 755.73 335.016 739.375 330.303C734.849 329.004 730.471 327.686 726.361 326.393C709.417 321.071 694.582 315.401 681.006 309.055C645.237 292.339 615.205 284.031 591.815 284.379C570.192 284.7 553.375 292.392 541.82 307.254C528.947 323.816 522.795 349.992 523.545 385.057C524.515 430.56 537.482 479.617 548.187 512.755C562.419 556.825 581.9 602.468 600.297 634.835C616.116 662.792 638.455 697.877 671.111 721.288C702.187 743.628 742.227 755.249 786.598 755.249C800.014 755.249 813.838 754.185 827.916 752.036C879.296 744.391 925.529 713.509 958.104 665.074C973.495 642.347 985.217 616.144 992.005 589.306C999.101 561.256 1000.85 533.407 997.2 506.542C992.166 470.312 978.71 441.231 956.076 417.639ZM990.07 588.811C983.335 615.428 971.714 641.409 956.45 663.95C924.196 711.916 878.446 742.49 827.628 750.054C767.505 759.246 712.343 748.448 672.296 719.661C655.312 707.484 631.975 686.724 602.057 633.845C583.721 601.584 564.301 556.088 550.108 512.139C539.444 479.128 526.53 430.279 525.566 385.017C524.83 350.42 530.835 324.673 543.42 308.486C554.741 293.925 570.587 286.695 591.862 286.387C614.978 286.039 644.681 294.287 680.175 310.876C693.832 317.256 708.748 322.959 725.778 328.308C729.902 329.607 734.294 330.926 738.839 332.231C755.234 336.951 772.352 341.162 788.907 345.238C818.29 352.469 848.669 359.946 876.237 370.55C910.104 383.484 935.751 399.337 954.643 419.025C976.976 442.302 990.258 471.021 995.238 506.817C998.833 533.427 997.099 561.015 990.07 588.811Z" fill="#FEB32F"/>
<path d="M935.189 434.61C917.797 416.401 894.239 401.84 863.163 390.098C838.233 380.585 810.866 374.045 784.389 367.725C769.099 364.077 753.28 360.301 738.157 355.996C734.053 354.832 730.07 353.647 726.328 352.475C711.292 347.782 697.441 342.467 685.15 336.683C622.396 307.14 581.104 306.29 558.912 334.085C547.11 348.867 541.346 372.518 541.781 404.398C542.35 446.084 554.119 490.837 563.893 521.049C576.853 561.136 594.701 602.802 611.644 632.519C626.004 657.858 646.275 689.67 675.845 710.938C704.135 731.357 740.734 741.994 781.356 741.994C793.219 741.994 805.436 741.084 817.882 739.249C864.589 732.354 906.697 704.21 936.448 660C950.412 639.254 961.083 615.401 967.323 591.02C973.883 565.367 975.544 539.974 972.263 515.56C967.831 482.563 955.701 456.092 935.189 434.61ZM965.375 590.518C959.196 614.678 948.618 638.317 934.781 658.875C905.352 702.604 863.725 730.439 817.587 737.254C805.236 739.075 793.125 739.979 781.35 739.979C741.156 739.979 704.959 729.469 677.016 709.305C661.646 698.252 640.531 679.421 613.385 631.522C596.508 601.919 578.714 560.393 565.801 520.427C548.174 465.933 544.097 427.239 543.789 404.371C543.361 372.974 548.977 349.751 560.485 335.344C570.848 322.37 585.603 315.876 605.01 315.876C625.93 315.876 652.253 323.421 684.3 338.504C696.671 344.328 710.609 349.677 725.732 354.396C729.494 355.575 733.491 356.76 737.615 357.931C752.778 362.242 768.617 366.025 783.927 369.68C810.337 375.986 837.644 382.507 862.453 391.973C893.248 403.608 916.565 418.008 933.743 435.996C953.954 457.157 965.903 483.265 970.282 515.821C973.515 539.981 971.868 565.112 965.375 590.518Z" fill="#FEB32F"/>
</g>
<path d="M110.91 110H103.281L102.719 104.832C101.359 106.684 99.6367 108.125 97.5508 109.156C95.4883 110.188 93.2266 110.703 90.7656 110.703C87.3672 110.703 84.5664 109.766 82.3633 107.891C80.1836 105.992 79.0938 103.379 79.0938 100.051C79.0938 98.2695 79.4336 96.6992 80.1133 95.3398C80.793 93.957 81.7773 92.8086 83.0664 91.8945C84.3555 90.9805 85.7734 90.2305 87.3203 89.6445C88.8672 89.0352 90.6836 88.5195 92.7695 88.0977L102.438 86.1641C101.852 82.4141 99.3789 80.5391 95.0195 80.5391C90.5195 80.5391 87.8242 82.4375 86.9336 86.2344L79.0234 84.7227C79.5859 81.3242 81.332 78.5703 84.2617 76.4609C87.2148 74.3516 91.0117 73.2969 95.6523 73.2969C100.363 73.2969 104.078 74.5391 106.797 77.0234C109.539 79.5078 110.91 82.8945 110.91 87.1836V110ZM87.8125 99.5586C87.8125 100.824 88.2109 101.809 89.0078 102.512C89.8281 103.191 90.918 103.531 92.2773 103.531C93.5664 103.531 94.8086 103.32 96.0039 102.898C97.2227 102.477 98.3242 101.867 99.3086 101.07C100.293 100.273 101.078 99.2305 101.664 97.9414C102.273 96.6289 102.578 95.1523 102.578 93.5117V92.6328L93.0508 94.8125C91.3398 95.1406 90.0391 95.6797 89.1484 96.4297C88.2578 97.1797 87.8125 98.2227 87.8125 99.5586ZM126.013 110H117.4V74H125.31L125.732 77.6562C128.052 74.75 131.076 73.2969 134.802 73.2969C136.982 73.2969 138.963 73.7656 140.744 74.7031C142.548 75.6172 144.002 76.9414 145.103 78.6758C147.869 75.0898 151.443 73.2969 155.826 73.2969C159.341 73.2969 162.341 74.4688 164.826 76.8125C167.287 79.2031 168.517 82.6602 168.517 87.1836V110H159.869V87.8164C159.869 85.707 159.33 84.0898 158.252 82.9648C157.197 81.8398 155.767 81.2773 153.963 81.2773C152.111 81.2773 150.529 81.8047 149.216 82.8594C147.927 83.9141 147.283 85.5664 147.283 87.8164V110H138.634V87.8164C138.634 85.707 138.095 84.0898 137.017 82.9648C135.963 81.8398 134.533 81.2773 132.728 81.2773C130.877 81.2773 129.295 81.8047 127.982 82.8594C126.67 83.9141 126.013 85.5664 126.013 87.8164V110ZM177.609 78.6055C181.218 75.0664 185.777 73.2969 191.284 73.2969C196.792 73.2969 201.351 75.0664 204.96 78.6055C208.57 82.1445 210.374 86.6094 210.374 92C210.374 97.3906 208.57 101.855 204.96 105.395C201.351 108.934 196.792 110.703 191.284 110.703C185.777 110.703 181.218 108.934 177.609 105.395C174.023 101.855 172.23 97.3906 172.23 92C172.23 86.6094 174.023 82.1445 177.609 78.6055ZM198.597 84.1953C196.745 82.2031 194.308 81.207 191.284 81.207C188.261 81.207 185.823 82.2031 183.972 84.1953C182.144 86.1875 181.23 88.7891 181.23 92C181.23 95.2109 182.144 97.8125 183.972 99.8047C185.823 101.797 188.261 102.793 191.284 102.793C194.308 102.793 196.745 101.797 198.597 99.8047C200.448 97.8125 201.374 95.2109 201.374 92C201.374 88.7891 200.448 86.1875 198.597 84.1953ZM209.762 81.5586V79.168L222.946 65.8086H225.196V74H237.782V81.5586H225.196V97.4844C225.196 99.3359 225.618 100.672 226.462 101.492C227.329 102.312 228.606 102.723 230.294 102.723C231.677 102.723 233.352 102.312 235.321 101.492L237.29 108.629C234.36 110.012 231.407 110.703 228.43 110.703C224.727 110.703 221.821 109.707 219.712 107.715C217.602 105.723 216.548 102.98 216.548 99.4883V81.5586H209.762ZM250.319 62.6797C250.319 64.1797 249.815 65.4336 248.807 66.4414C247.799 67.4492 246.522 67.9531 244.975 67.9531C243.452 67.9531 242.186 67.4492 241.178 66.4414C240.17 65.4336 239.666 64.1797 239.666 62.6797C239.666 61.1797 240.159 59.9375 241.143 58.9531C242.151 57.9453 243.428 57.4414 244.975 57.4414C246.522 57.4414 247.799 57.9453 248.807 58.9531C249.815 59.9609 250.319 61.2031 250.319 62.6797ZM249.299 110H240.686V74H249.299V110ZM259.129 78.6055C262.738 75.0664 267.297 73.2969 272.805 73.2969C278.312 73.2969 282.871 75.0664 286.48 78.6055C290.09 82.1445 291.895 86.6094 291.895 92C291.895 97.3906 290.09 101.855 286.48 105.395C282.871 108.934 278.312 110.703 272.805 110.703C267.297 110.703 262.738 108.934 259.129 105.395C255.543 101.855 253.75 97.3906 253.75 92C253.75 86.6094 255.543 82.1445 259.129 78.6055ZM280.117 84.1953C278.266 82.2031 275.828 81.207 272.805 81.207C269.781 81.207 267.344 82.2031 265.492 84.1953C263.664 86.1875 262.75 88.7891 262.75 92C262.75 95.2109 263.664 97.8125 265.492 99.8047C267.344 101.797 269.781 102.793 272.805 102.793C275.828 102.793 278.266 101.797 280.117 99.8047C281.969 97.8125 282.895 95.2109 282.895 92C282.895 88.7891 281.969 86.1875 280.117 84.1953ZM304.959 110H296.345V74H304.255L304.677 77.832C307.537 74.8086 311.111 73.2969 315.4 73.2969C319.408 73.2969 322.759 74.6211 325.455 77.2695C328.173 79.918 329.533 83.6094 329.533 88.3438V110H320.884V89.6094C320.884 86.9609 320.181 84.9102 318.775 83.457C317.392 82.0039 315.576 81.2773 313.326 81.2773C312.271 81.2773 311.275 81.418 310.337 81.6992C309.423 81.9805 308.545 82.4258 307.701 83.0352C306.857 83.6445 306.189 84.5117 305.697 85.6367C305.205 86.7617 304.959 88.0859 304.959 89.6094V110ZM339.925 110.703C338.214 110.703 336.808 110.188 335.706 109.156C334.628 108.125 334.089 106.777 334.089 105.113C334.089 103.402 334.628 102.02 335.706 100.965C336.808 99.8867 338.214 99.3477 339.925 99.3477C341.659 99.3477 343.066 99.8867 344.144 100.965C345.222 102.02 345.761 103.402 345.761 105.113C345.761 106.801 345.222 108.16 344.144 109.191C343.066 110.199 341.659 110.703 339.925 110.703ZM351.653 66.4414C350.645 65.4336 350.141 64.1797 350.141 62.6797C350.141 61.1797 350.634 59.9375 351.618 58.9531C352.626 57.9453 353.903 57.4414 355.45 57.4414C356.997 57.4414 358.274 57.9453 359.282 58.9531C360.29 59.9609 360.794 61.2031 360.794 62.6797C360.794 64.1797 360.29 65.4336 359.282 66.4414C358.274 67.4492 356.997 67.9531 355.45 67.9531C353.927 67.9531 352.661 67.4492 351.653 66.4414ZM351.161 114.254V74H359.774V114.254C359.774 117.98 358.72 120.957 356.61 123.184C354.524 125.434 351.747 126.559 348.278 126.559C346.45 126.559 344.505 126.242 342.442 125.609L344.024 118.367C345.29 118.695 346.274 118.859 346.977 118.859C349.766 118.859 351.161 117.324 351.161 114.254ZM379.342 110.703C374.819 110.703 371.233 109.789 368.584 107.961C365.959 106.109 364.284 103.473 363.557 100.051L372.135 98.3281C372.463 100.086 373.272 101.434 374.561 102.371C375.873 103.285 377.608 103.742 379.764 103.742C381.756 103.742 383.291 103.379 384.37 102.652C385.471 101.902 386.022 100.824 386.022 99.418C386.022 97.8711 385.143 96.8867 383.385 96.4648C381.182 96.043 379.108 95.6797 377.163 95.375C375.803 95.1875 374.596 94.9766 373.541 94.7422C372.487 94.4844 371.373 94.0859 370.202 93.5469C369.03 93.0078 368.057 92.3633 367.284 91.6133C366.534 90.8633 365.901 89.8672 365.385 88.625C364.893 87.3828 364.647 85.9648 364.647 84.3711C364.647 81.1836 365.995 78.5469 368.69 76.4609C371.409 74.3516 374.913 73.2969 379.202 73.2969C383.397 73.2969 386.772 74.1875 389.327 75.9688C391.881 77.75 393.381 80.1406 393.827 83.1406L385.741 84.8633C385.459 83.4805 384.768 82.3438 383.666 81.4531C382.588 80.5625 381.006 80.1172 378.92 80.1172C377.116 80.1172 375.721 80.4688 374.737 81.1719C373.776 81.875 373.295 82.8008 373.295 83.9492C373.295 85.4492 374.139 86.375 375.827 86.7266C377.561 87.1719 379.471 87.5586 381.557 87.8867C382.612 88.0742 383.491 88.2383 384.194 88.3789C384.92 88.5195 385.776 88.7422 386.76 89.0469C387.768 89.3516 388.612 89.6797 389.291 90.0312C389.971 90.3594 390.674 90.8047 391.401 91.3672C392.151 91.9297 392.748 92.5508 393.194 93.2305C393.639 93.9102 394.002 94.7422 394.284 95.7266C394.588 96.6875 394.741 97.7539 394.741 98.9258C394.741 102.371 393.393 105.195 390.698 107.398C388.002 109.602 384.217 110.703 379.342 110.703Z" fill="white"/>
<rect x="465" y="24" width="195" height="136" fill="#FAA9CB"/>
<g clip-path="url(#clip4)">
<path d="M357.815 243.474C357.412 224.122 345.988 204.777 327.741 197.32C308.985 189.661 285.706 194.881 272.028 209.811C247.367 236.725 261.06 282.648 296.606 291.486C319.02 297.056 344.555 284.587 353.91 263.49C356.717 257.174 357.957 250.32 357.815 243.474Z" fill="#E5DCD7"/>
<path d="M359.121 279.807C359.181 279.8 359.248 279.785 359.308 279.777C359.808 279.084 360.293 278.383 360.764 277.667C360.54 277.712 360.316 277.749 360.092 277.794C358.725 278.077 357.359 278.368 355.97 278.517C352.708 277.175 349.445 275.832 346.182 274.497C340.904 272.342 335.617 270.217 330.339 268.069C324.985 265.884 319.64 263.692 314.286 261.492C310.038 259.754 305.797 258.001 301.556 256.264C299.936 254.653 298.301 253.057 296.688 251.439C295.247 250 293.821 248.545 292.403 247.084C291.962 246.629 291.559 246.144 291.119 245.682C290.073 244.57 289.035 243.467 287.938 242.408C287.893 241.319 287.848 240.223 287.804 239.134C287.706 236.815 287.594 234.503 287.505 232.184C287.445 230.67 287.408 229.156 287.363 227.642C290.208 226.799 293.045 225.949 295.882 225.092C297.129 224.719 298.368 224.338 299.608 223.958C302.004 224.778 304.408 225.606 306.813 226.419C312.599 228.38 318.4 230.304 324.179 232.266C325.292 232.646 326.404 233.034 327.517 233.422C330.13 236.054 332.735 238.694 335.349 241.334C338.358 244.377 341.344 247.434 344.36 250.462C347.377 253.497 350.43 256.495 353.447 259.53C355.53 261.626 357.561 263.774 359.644 265.869C361.301 267.54 362.974 269.203 364.646 270.858C364.982 270.18 365.296 269.493 365.602 268.8C363.758 267.055 361.943 265.273 360.129 263.49C358.322 261.723 356.538 259.933 354.739 258.158C353.156 256.592 351.558 255.033 349.982 253.46C348.616 252.103 347.272 250.723 345.921 249.351C345.503 248.926 345.122 248.456 344.711 248.023C343.472 246.711 342.24 245.391 340.896 244.175C339.119 242.564 337.641 240.648 335.871 239.022C335.207 238.411 334.505 237.836 333.87 237.195C333.086 236.405 332.31 235.607 331.526 234.809C333.057 235.346 334.587 235.875 336.118 236.397C347.675 240.335 359.293 244.093 370.843 248.038C370.895 247.352 370.94 246.666 370.97 245.98C369.357 245.331 367.722 244.742 366.05 244.175C359.614 242.005 353.208 239.716 346.72 237.695C342.785 236.472 338.873 235.159 334.96 233.869C332.795 233.153 330.637 232.43 328.48 231.706C328.383 231.602 328.278 231.505 328.181 231.401C326.785 229.984 325.381 228.574 323.978 227.165C321.387 224.555 318.766 221.974 316.213 219.334C316.108 219.23 316.011 219.118 315.907 219.006C318.684 218.193 321.461 217.388 324.239 216.553C335.737 213.092 347.183 209.446 358.688 206.015C358.27 205.456 357.837 204.919 357.404 204.375C355.53 204.8 353.686 205.307 351.827 205.866C345.607 207.753 339.358 209.528 333.183 211.571C329.443 212.809 325.672 213.965 321.909 215.136C319.423 215.911 316.937 216.665 314.451 217.425C313.413 216.284 312.368 215.143 311.21 214.107C310.053 213.07 309.12 211.78 307.821 210.878C307.634 210.751 307.492 210.527 307.328 210.355C306.88 209.871 306.432 209.386 305.984 208.901C304.662 207.499 303.124 206.328 301.892 204.837C301.355 204.188 300.795 203.584 300.078 203.107C299.645 202.823 299.145 202.443 298.906 202.025C298.167 200.75 297.009 199.908 295.972 198.938C294.867 197.916 293.724 196.939 292.657 195.88C291.634 194.866 290.686 193.77 289.446 193.017C289.207 192.868 289.006 192.614 288.797 192.398C287.901 191.473 287.012 190.541 286.116 189.609C286.094 188.102 286.042 186.551 285.997 185C285.362 185.246 284.727 185.485 284.1 185.746C284.123 186.387 284.145 187.028 284.167 187.662C283.951 187.461 283.742 187.26 283.533 187.043C283.294 186.797 283.055 186.559 282.816 186.32C282.234 186.581 281.659 186.842 281.084 187.118C282.137 188.177 283.197 189.228 284.257 190.272C284.362 193.121 284.466 195.97 284.563 198.819C284.72 203.398 284.854 207.977 284.996 212.563C285.041 214.047 285.086 215.524 285.131 217.008C285.004 216.963 284.869 216.933 284.742 216.888C281.091 215.65 277.448 214.375 273.797 213.115C271.116 212.19 268.429 211.28 265.741 210.363C262.911 209.401 260.074 208.446 257.244 207.477C256.863 208.021 256.49 208.566 256.124 209.125C261.298 210.885 266.48 212.623 271.654 214.383C276.171 215.919 280.688 217.47 285.198 219.014C285.265 221.311 285.34 223.607 285.414 225.904C285.414 225.994 285.422 226.091 285.422 226.18C282.6 227.083 279.695 227.717 276.88 228.664C276.223 228.887 275.566 229.119 274.917 229.35C274.499 228.925 274.088 228.5 273.67 228.075C272.199 226.576 270.713 225.084 269.235 223.585C266.495 220.826 263.732 218.089 261.03 215.292C259.26 213.458 257.647 211.496 255.743 209.781C255.736 209.774 255.721 209.759 255.714 209.751C255.34 210.341 254.967 210.93 254.609 211.534C256.99 213.95 259.372 216.374 261.754 218.782C264.979 222.049 268.242 225.285 271.475 228.552C271.953 229.029 272.423 229.514 272.901 229.999C269.526 231.013 266.144 231.997 262.762 232.996C260.156 233.772 257.558 234.555 254.96 235.338C254.004 235.629 253.048 235.92 252.092 236.203C250.263 235.472 248.434 234.742 246.605 234.003C246.5 234.727 246.411 235.45 246.329 236.181C247.157 236.516 247.986 236.859 248.815 237.195C247.926 237.463 247.038 237.732 246.157 238C246.097 238.694 246.037 239.373 246 240.059C247.874 239.492 249.748 238.925 251.622 238.358C255.266 239.857 258.909 241.341 262.605 242.728C266.151 244.056 269.675 245.473 273.2 246.867C276.283 248.09 279.359 249.336 282.443 250.566C283.727 251.081 285.019 251.595 286.303 252.11C286.624 260.365 287.049 268.606 287.288 276.869C287.318 277.928 287.445 278.994 287.482 280.053C287.572 282.992 287.654 285.93 287.744 288.875C287.326 288.965 286.908 289.047 286.489 289.114C283.637 289.547 280.778 289.942 277.918 290.367C275.82 290.673 273.722 290.993 271.617 291.314C270.713 291.448 269.802 291.59 268.899 291.732C269.578 292.284 270.258 292.828 270.96 293.35C272.976 293.037 274.984 292.724 277 292.418C280.599 291.873 284.205 291.336 287.804 290.807C287.863 292.425 287.923 294.036 288.005 295.654C288.117 297.929 288.199 300.211 288.281 302.485C288.804 302.664 289.319 302.851 289.842 303.015C289.887 302.195 289.931 301.374 289.961 300.554C289.984 299.995 289.991 299.428 289.954 298.869C289.857 297.377 289.685 295.886 289.64 294.387C289.603 293.104 289.603 291.821 289.61 290.539C290.058 290.471 290.506 290.404 290.954 290.337C295.471 289.666 299.988 289.01 304.506 288.324C309.023 287.638 313.532 286.899 318.049 286.213C321.155 285.743 324.269 285.341 327.375 284.871C327.382 284.878 327.397 284.893 327.405 284.901C328.159 285.669 328.987 286.377 329.749 287.145C333.124 290.568 336.476 294.014 339.896 297.392C340.396 297.101 340.896 296.81 341.389 296.505C341.337 296.452 341.284 296.408 341.24 296.363C339.911 295.013 338.641 293.611 337.365 292.209C335.573 290.233 333.706 288.324 331.72 286.534C330.996 285.878 330.272 285.221 329.577 284.535C338.141 283.215 346.69 281.761 355.261 280.486C356.045 280.806 356.829 281.12 357.628 281.403C357.755 281.448 357.874 281.5 358.001 281.545C358.427 280.993 358.845 280.434 359.256 279.874C359.203 279.844 359.159 279.822 359.121 279.807ZM313.816 219.655C314.831 220.684 315.839 221.706 316.855 222.735C319.393 225.3 321.954 227.843 324.5 230.401C321.558 229.417 318.609 228.455 315.668 227.463C313.062 226.583 310.464 225.688 307.865 224.786C307.059 224.502 306.268 224.174 305.461 223.883C304.61 223.578 303.751 223.272 302.9 222.966C306.148 221.974 309.396 220.982 312.651 219.998C313.039 219.879 313.428 219.767 313.816 219.655ZM279.105 230.103C281.233 229.469 283.369 228.835 285.496 228.201C285.638 231.885 285.788 235.577 285.915 239.261C285.93 239.671 285.937 240.089 285.944 240.499C284.541 239.067 283.249 237.523 281.771 236.158C281.076 235.502 280.345 234.891 279.673 234.219C278.583 233.123 277.508 232.012 276.432 230.908C277.321 230.64 278.209 230.371 279.105 230.103ZM283.085 248.791C279.494 247.33 275.925 245.801 272.333 244.332C266.547 241.975 260.746 239.663 254.937 237.352C257.229 236.658 259.521 235.957 261.821 235.271C266.01 234.011 270.198 232.765 274.379 231.512C276.679 233.847 278.986 236.173 281.286 238.508C282.861 240.111 284.444 241.714 286.019 243.318C286.056 245.04 286.094 246.756 286.154 248.478C286.168 249.008 286.198 249.53 286.213 250.059C285.175 249.634 284.13 249.217 283.085 248.791ZM286.967 211.191C286.893 210.251 286.773 209.319 286.743 208.379C286.646 205.568 286.587 202.756 286.504 199.945C286.445 197.879 286.37 195.806 286.303 193.74C286.288 193.241 286.265 192.748 286.251 192.249C286.609 192.599 286.967 192.957 287.318 193.308C289.364 195.329 291.44 197.32 293.5 199.326C293.799 199.617 294.09 199.93 294.389 200.228C295.875 201.727 297.338 203.234 298.839 204.71C300.422 206.269 302.072 207.768 303.639 209.349C306.544 212.265 309.426 215.195 312.315 218.126C312.226 218.156 312.136 218.178 312.046 218.208C309.142 219.103 306.238 220.013 303.326 220.9C302.176 221.251 301.026 221.586 299.876 221.93C299.302 221.743 298.727 221.564 298.144 221.385C294.867 220.408 291.723 219.014 288.446 218.014C287.998 217.88 287.55 217.746 287.102 217.619C287.005 215.479 287.132 213.331 286.967 211.191ZM287.221 219.715C287.983 219.976 288.737 220.229 289.498 220.49C291.85 221.296 294.21 222.109 296.561 222.914C296.3 222.988 296.031 223.071 295.77 223.153C294.986 223.384 294.187 223.563 293.396 223.786C291.365 224.353 289.334 224.927 287.326 225.584C287.333 225.159 287.341 224.741 287.341 224.316C287.326 222.78 287.311 221.243 287.221 219.715ZM288.132 247.024C288.11 246.48 288.087 245.935 288.065 245.398C288.983 246.33 289.894 247.263 290.812 248.187C292.888 250.275 294.979 252.356 297.062 254.444C294.15 253.266 291.231 252.088 288.319 250.917C288.252 249.612 288.192 248.314 288.132 247.024ZM317.698 284.349C315.347 284.722 313.002 285.117 310.65 285.482C308.619 285.796 306.581 286.094 304.55 286.385C303.916 286.474 303.274 286.511 302.639 286.593C300.728 286.832 298.816 287.071 296.92 287.459C294.516 287.951 292.044 288.055 289.618 288.495C289.64 285.967 289.566 283.439 289.334 280.918C289.177 279.181 289.013 277.443 289.14 275.706C289.259 274.095 289.252 272.499 289.192 270.873C289.006 265.921 288.946 260.97 288.602 256.025C288.535 255.004 288.483 253.982 288.423 252.96C289.14 253.251 289.864 253.534 290.581 253.818C292.925 254.765 295.262 255.727 297.599 256.696C298.323 256.995 299.033 257.345 299.757 257.658C300.063 257.793 300.369 257.919 300.668 258.054C302.781 260.187 304.849 262.364 306.954 264.497C313.129 270.731 319.431 276.847 325.605 283.088C322.97 283.521 320.334 283.924 317.698 284.349ZM349.878 279.151C344.853 279.926 339.813 280.59 334.819 281.522C332.526 281.947 330.227 282.328 327.92 282.708C326.904 281.448 325.814 280.277 324.664 279.129C321.11 275.564 317.639 271.917 313.965 268.464C311.74 266.369 309.575 264.214 307.395 262.073C306.678 261.365 305.961 260.656 305.252 259.94C305.611 260.075 305.976 260.216 306.335 260.351C309.299 261.417 312.099 262.886 315.055 263.982C316.168 264.393 317.295 264.758 318.393 265.198C321.678 266.533 324.956 267.912 328.233 269.262C330.645 270.254 333.064 271.239 335.483 272.223C339.955 274.043 344.435 275.832 348.885 277.697C349.811 278.084 350.729 278.495 351.64 278.897C351.058 278.972 350.468 279.054 349.878 279.151Z" fill="#0D3025"/>
</g>
<g filter="url(#filter1_d)">
<path d="M550 66.8284V115.884C550 117.765 552.361 118.606 553.55 117.149L564.9 103.236C565.28 102.77 565.849 102.5 566.45 102.5H585.672C587.453 102.5 588.346 100.346 587.086 99.0858L553.414 65.4142C552.154 64.1543 550 65.0466 550 66.8284Z" fill="#FFAE1B"/>
<path d="M550 66.8284V115.884C550 117.765 552.361 118.606 553.55 117.149L564.9 103.236C565.28 102.77 565.849 102.5 566.45 102.5H585.672C587.453 102.5 588.346 100.346 587.086 99.0858L553.414 65.4142C552.154 64.1543 550 65.0466 550 66.8284Z" stroke="black" stroke-width="2"/>
</g>
<rect x="597" y="328" width="215" height="136" fill="#FAA9CB"/>
<path d="M110.91 110H103.281L102.719 104.832C101.359 106.684 99.6367 108.125 97.5508 109.156C95.4883 110.188 93.2266 110.703 90.7656 110.703C87.3672 110.703 84.5664 109.766 82.3633 107.891C80.1836 105.992 79.0938 103.379 79.0938 100.051C79.0938 98.2695 79.4336 96.6992 80.1133 95.3398C80.793 93.957 81.7773 92.8086 83.0664 91.8945C84.3555 90.9805 85.7734 90.2305 87.3203 89.6445C88.8672 89.0352 90.6836 88.5195 92.7695 88.0977L102.438 86.1641C101.852 82.4141 99.3789 80.5391 95.0195 80.5391C90.5195 80.5391 87.8242 82.4375 86.9336 86.2344L79.0234 84.7227C79.5859 81.3242 81.332 78.5703 84.2617 76.4609C87.2148 74.3516 91.0117 73.2969 95.6523 73.2969C100.363 73.2969 104.078 74.5391 106.797 77.0234C109.539 79.5078 110.91 82.8945 110.91 87.1836V110ZM87.8125 99.5586C87.8125 100.824 88.2109 101.809 89.0078 102.512C89.8281 103.191 90.918 103.531 92.2773 103.531C93.5664 103.531 94.8086 103.32 96.0039 102.898C97.2227 102.477 98.3242 101.867 99.3086 101.07C100.293 100.273 101.078 99.2305 101.664 97.9414C102.273 96.6289 102.578 95.1523 102.578 93.5117V92.6328L93.0508 94.8125C91.3398 95.1406 90.0391 95.6797 89.1484 96.4297C88.2578 97.1797 87.8125 98.2227 87.8125 99.5586ZM126.013 110H117.4V74H125.31L125.732 77.6562C128.052 74.75 131.076 73.2969 134.802 73.2969C136.982 73.2969 138.963 73.7656 140.744 74.7031C142.548 75.6172 144.002 76.9414 145.103 78.6758C147.869 75.0898 151.443 73.2969 155.826 73.2969C159.341 73.2969 162.341 74.4688 164.826 76.8125C167.287 79.2031 168.517 82.6602 168.517 87.1836V110H159.869V87.8164C159.869 85.707 159.33 84.0898 158.252 82.9648C157.197 81.8398 155.767 81.2773 153.963 81.2773C152.111 81.2773 150.529 81.8047 149.216 82.8594C147.927 83.9141 147.283 85.5664 147.283 87.8164V110H138.634V87.8164C138.634 85.707 138.095 84.0898 137.017 82.9648C135.963 81.8398 134.533 81.2773 132.728 81.2773C130.877 81.2773 129.295 81.8047 127.982 82.8594C126.67 83.9141 126.013 85.5664 126.013 87.8164V110ZM177.609 78.6055C181.218 75.0664 185.777 73.2969 191.284 73.2969C196.792 73.2969 201.351 75.0664 204.96 78.6055C208.57 82.1445 210.374 86.6094 210.374 92C210.374 97.3906 208.57 101.855 204.96 105.395C201.351 108.934 196.792 110.703 191.284 110.703C185.777 110.703 181.218 108.934 177.609 105.395C174.023 101.855 172.23 97.3906 172.23 92C172.23 86.6094 174.023 82.1445 177.609 78.6055ZM198.597 84.1953C196.745 82.2031 194.308 81.207 191.284 81.207C188.261 81.207 185.823 82.2031 183.972 84.1953C182.144 86.1875 181.23 88.7891 181.23 92C181.23 95.2109 182.144 97.8125 183.972 99.8047C185.823 101.797 188.261 102.793 191.284 102.793C194.308 102.793 196.745 101.797 198.597 99.8047C200.448 97.8125 201.374 95.2109 201.374 92C201.374 88.7891 200.448 86.1875 198.597 84.1953ZM209.762 81.5586V79.168L222.946 65.8086H225.196V74H237.782V81.5586H225.196V97.4844C225.196 99.3359 225.618 100.672 226.462 101.492C227.329 102.312 228.606 102.723 230.294 102.723C231.677 102.723 233.352 102.312 235.321 101.492L237.29 108.629C234.36 110.012 231.407 110.703 228.43 110.703C224.727 110.703 221.821 109.707 219.712 107.715C217.602 105.723 216.548 102.98 216.548 99.4883V81.5586H209.762ZM250.319 62.6797C250.319 64.1797 249.815 65.4336 248.807 66.4414C247.799 67.4492 246.522 67.9531 244.975 67.9531C243.452 67.9531 242.186 67.4492 241.178 66.4414C240.17 65.4336 239.666 64.1797 239.666 62.6797C239.666 61.1797 240.159 59.9375 241.143 58.9531C242.151 57.9453 243.428 57.4414 244.975 57.4414C246.522 57.4414 247.799 57.9453 248.807 58.9531C249.815 59.9609 250.319 61.2031 250.319 62.6797ZM249.299 110H240.686V74H249.299V110ZM259.129 78.6055C262.738 75.0664 267.297 73.2969 272.805 73.2969C278.312 73.2969 282.871 75.0664 286.48 78.6055C290.09 82.1445 291.895 86.6094 291.895 92C291.895 97.3906 290.09 101.855 286.48 105.395C282.871 108.934 278.312 110.703 272.805 110.703C267.297 110.703 262.738 108.934 259.129 105.395C255.543 101.855 253.75 97.3906 253.75 92C253.75 86.6094 255.543 82.1445 259.129 78.6055ZM280.117 84.1953C278.266 82.2031 275.828 81.207 272.805 81.207C269.781 81.207 267.344 82.2031 265.492 84.1953C263.664 86.1875 262.75 88.7891 262.75 92C262.75 95.2109 263.664 97.8125 265.492 99.8047C267.344 101.797 269.781 102.793 272.805 102.793C275.828 102.793 278.266 101.797 280.117 99.8047C281.969 97.8125 282.895 95.2109 282.895 92C282.895 88.7891 281.969 86.1875 280.117 84.1953ZM304.959 110H296.345V74H304.255L304.677 77.832C307.537 74.8086 311.111 73.2969 315.4 73.2969C319.408 73.2969 322.759 74.6211 325.455 77.2695C328.173 79.918 329.533 83.6094 329.533 88.3438V110H320.884V89.6094C320.884 86.9609 320.181 84.9102 318.775 83.457C317.392 82.0039 315.576 81.2773 313.326 81.2773C312.271 81.2773 311.275 81.418 310.337 81.6992C309.423 81.9805 308.545 82.4258 307.701 83.0352C306.857 83.6445 306.189 84.5117 305.697 85.6367C305.205 86.7617 304.959 88.0859 304.959 89.6094V110ZM339.925 110.703C338.214 110.703 336.808 110.188 335.706 109.156C334.628 108.125 334.089 106.777 334.089 105.113C334.089 103.402 334.628 102.02 335.706 100.965C336.808 99.8867 338.214 99.3477 339.925 99.3477C341.659 99.3477 343.066 99.8867 344.144 100.965C345.222 102.02 345.761 103.402 345.761 105.113C345.761 106.801 345.222 108.16 344.144 109.191C343.066 110.199 341.659 110.703 339.925 110.703ZM351.653 66.4414C350.645 65.4336 350.141 64.1797 350.141 62.6797C350.141 61.1797 350.634 59.9375 351.618 58.9531C352.626 57.9453 353.903 57.4414 355.45 57.4414C356.997 57.4414 358.274 57.9453 359.282 58.9531C360.29 59.9609 360.794 61.2031 360.794 62.6797C360.794 64.1797 360.29 65.4336 359.282 66.4414C358.274 67.4492 356.997 67.9531 355.45 67.9531C353.927 67.9531 352.661 67.4492 351.653 66.4414ZM351.161 114.254V74H359.774V114.254C359.774 117.98 358.72 120.957 356.61 123.184C354.524 125.434 351.747 126.559 348.278 126.559C346.45 126.559 344.505 126.242 342.442 125.609L344.024 118.367C345.29 118.695 346.274 118.859 346.977 118.859C349.766 118.859 351.161 117.324 351.161 114.254ZM379.342 110.703C374.819 110.703 371.233 109.789 368.584 107.961C365.959 106.109 364.284 103.473 363.557 100.051L372.135 98.3281C372.463 100.086 373.272 101.434 374.561 102.371C375.873 103.285 377.608 103.742 379.764 103.742C381.756 103.742 383.291 103.379 384.37 102.652C385.471 101.902 386.022 100.824 386.022 99.418C386.022 97.8711 385.143 96.8867 383.385 96.4648C381.182 96.043 379.108 95.6797 377.163 95.375C375.803 95.1875 374.596 94.9766 373.541 94.7422C372.487 94.4844 371.373 94.0859 370.202 93.5469C369.03 93.0078 368.057 92.3633 367.284 91.6133C366.534 90.8633 365.901 89.8672 365.385 88.625C364.893 87.3828 364.647 85.9648 364.647 84.3711C364.647 81.1836 365.995 78.5469 368.69 76.4609C371.409 74.3516 374.913 73.2969 379.202 73.2969C383.397 73.2969 386.772 74.1875 389.327 75.9688C391.881 77.75 393.381 80.1406 393.827 83.1406L385.741 84.8633C385.459 83.4805 384.768 82.3438 383.666 81.4531C382.588 80.5625 381.006 80.1172 378.92 80.1172C377.116 80.1172 375.721 80.4688 374.737 81.1719C373.776 81.875 373.295 82.8008 373.295 83.9492C373.295 85.4492 374.139 86.375 375.827 86.7266C377.561 87.1719 379.471 87.5586 381.557 87.8867C382.612 88.0742 383.491 88.2383 384.194 88.3789C384.92 88.5195 385.776 88.7422 386.76 89.0469C387.768 89.3516 388.612 89.6797 389.291 90.0312C389.971 90.3594 390.674 90.8047 391.401 91.3672C392.151 91.9297 392.748 92.5508 393.194 93.2305C393.639 93.9102 394.002 94.7422 394.284 95.7266C394.588 96.6875 394.741 97.7539 394.741 98.9258C394.741 102.371 393.393 105.195 390.698 107.398C388.002 109.602 384.217 110.703 379.342 110.703Z" fill="white"/>
<path d="M622.496 416H615.605V374H623.371L643.988 405.309V374H650.934V416H643.141L622.496 384.527V416ZM660.001 391.582C662.808 388.829 666.354 387.453 670.638 387.453C674.921 387.453 678.467 388.829 681.274 391.582C684.082 394.335 685.485 397.807 685.485 402C685.485 406.193 684.082 409.665 681.274 412.418C678.467 415.171 674.921 416.547 670.638 416.547C666.354 416.547 662.808 415.171 660.001 412.418C657.212 409.665 655.817 406.193 655.817 402C655.817 397.807 657.212 394.335 660.001 391.582ZM676.325 395.93C674.885 394.38 672.989 393.605 670.638 393.605C668.286 393.605 666.39 394.38 664.95 395.93C663.528 397.479 662.817 399.503 662.817 402C662.817 404.497 663.528 406.521 664.95 408.07C666.39 409.62 668.286 410.395 670.638 410.395C672.989 410.395 674.885 409.62 676.325 408.07C677.765 406.521 678.485 404.497 678.485 402C678.485 399.503 677.765 397.479 676.325 395.93ZM715.99 374V416H709.838L709.482 412.582C707.13 415.225 704.15 416.547 700.541 416.547C696.621 416.547 693.349 415.171 690.724 412.418C688.117 409.647 686.814 406.174 686.814 402C686.814 397.826 688.117 394.362 690.724 391.609C693.349 388.839 696.621 387.453 700.541 387.453C703.913 387.453 706.821 388.702 709.263 391.199V374H715.99ZM707.13 395.93C705.709 394.38 703.84 393.605 701.525 393.605C699.21 393.605 697.341 394.38 695.92 395.93C694.516 397.479 693.814 399.503 693.814 402C693.814 404.497 694.516 406.521 695.92 408.07C697.341 409.62 699.21 410.395 701.525 410.395C703.84 410.395 705.709 409.62 707.13 408.07C708.552 406.521 709.263 404.497 709.263 402C709.263 399.503 708.552 397.479 707.13 395.93ZM723.389 412.527C720.764 409.829 719.452 406.357 719.452 402.109C719.452 397.862 720.81 394.362 723.526 391.609C726.242 388.839 729.715 387.453 733.944 387.453C737.991 387.453 741.299 388.684 743.87 391.145C746.403 393.624 747.67 396.814 747.67 400.715C747.67 401.663 747.579 402.665 747.397 403.723H726.287C726.524 406.001 727.336 407.733 728.721 408.918C730.107 410.085 731.884 410.668 734.053 410.668C735.912 410.668 737.489 410.294 738.784 409.547C740.078 408.781 740.907 407.76 741.272 406.484L747.506 407.605C746.923 410.34 745.373 412.518 742.858 414.141C740.36 415.745 737.426 416.547 734.053 416.547C729.569 416.547 726.014 415.207 723.389 412.527ZM733.998 393.031C731.939 393.031 730.261 393.496 728.967 394.426C727.691 395.337 726.871 396.668 726.506 398.418H741.053C740.689 396.668 739.896 395.337 738.674 394.426C737.471 393.496 735.912 393.031 733.998 393.031ZM754.495 416.547C753.165 416.547 752.071 416.146 751.214 415.344C750.376 414.542 749.956 413.493 749.956 412.199C749.956 410.868 750.376 409.793 751.214 408.973C752.071 408.134 753.165 407.715 754.495 407.715C755.844 407.715 756.938 408.134 757.777 408.973C758.615 409.793 759.034 410.868 759.034 412.199C759.034 413.512 758.615 414.569 757.777 415.371C756.938 416.155 755.844 416.547 754.495 416.547ZM763.617 382.121C762.833 381.337 762.441 380.362 762.441 379.195C762.441 378.029 762.824 377.062 763.59 376.297C764.374 375.513 765.367 375.121 766.57 375.121C767.773 375.121 768.767 375.513 769.551 376.297C770.335 377.081 770.727 378.047 770.727 379.195C770.727 380.362 770.335 381.337 769.551 382.121C768.767 382.905 767.773 383.297 766.57 383.297C765.385 383.297 764.401 382.905 763.617 382.121ZM763.234 419.309V388H769.934V419.309C769.934 422.207 769.113 424.522 767.473 426.254C765.85 428.004 763.69 428.879 760.992 428.879C759.57 428.879 758.057 428.633 756.453 428.141L757.684 422.508C758.668 422.763 759.434 422.891 759.98 422.891C762.15 422.891 763.234 421.697 763.234 419.309ZM785.153 416.547C781.635 416.547 778.846 415.836 776.786 414.414C774.744 412.974 773.441 410.923 772.876 408.262L779.548 406.922C779.803 408.289 780.432 409.337 781.434 410.066C782.455 410.777 783.804 411.133 785.481 411.133C787.031 411.133 788.225 410.85 789.063 410.285C789.92 409.702 790.348 408.863 790.348 407.77C790.348 406.566 789.665 405.801 788.298 405.473C786.584 405.145 784.971 404.862 783.458 404.625C782.401 404.479 781.462 404.315 780.641 404.133C779.821 403.932 778.955 403.622 778.044 403.203C777.132 402.784 776.376 402.283 775.774 401.699C775.191 401.116 774.699 400.341 774.298 399.375C773.915 398.409 773.723 397.306 773.723 396.066C773.723 393.587 774.772 391.536 776.868 389.914C778.983 388.273 781.708 387.453 785.044 387.453C788.307 387.453 790.932 388.146 792.919 389.531C794.906 390.917 796.072 392.776 796.419 395.109L790.13 396.449C789.911 395.374 789.373 394.49 788.516 393.797C787.678 393.104 786.447 392.758 784.825 392.758C783.421 392.758 782.337 393.031 781.571 393.578C780.824 394.125 780.45 394.845 780.45 395.738C780.45 396.905 781.106 397.625 782.419 397.898C783.768 398.245 785.253 398.546 786.876 398.801C787.696 398.947 788.38 399.074 788.927 399.184C789.492 399.293 790.157 399.466 790.923 399.703C791.707 399.94 792.363 400.195 792.891 400.469C793.42 400.724 793.967 401.07 794.532 401.508C795.115 401.945 795.58 402.428 795.927 402.957C796.273 403.486 796.555 404.133 796.774 404.898C797.011 405.646 797.13 406.475 797.13 407.387C797.13 410.066 796.082 412.263 793.985 413.977C791.889 415.69 788.945 416.547 785.153 416.547Z" fill="white"/>
<rect x="24" y="328" width="268" height="136" fill="#008C26"/>
<g filter="url(#filter2_d)">
<circle cx="158" cy="382" r="21" fill="#FF5B2B"/>
<circle cx="158" cy="382" r="20" stroke="black" stroke-width="2"/>
</g>
<rect x="157" y="401" width="2" height="43" fill="black"/>
<defs>
<filter id="filter0_d" x="60.1514" y="213.472" width="63.6969" height="64.7769" filterUnits="userSpaceOnUse" color-interpolation-filters="sRGB">
<feFlood flood-opacity="0" result="BackgroundImageFix"/>
<feColorMatrix in="SourceAlpha" type="matrix" values="0 0 0 0 0 0 0 0 0 0 0 0 0 0 0 0 0 0 127 0"/>
<feOffset dy="4"/>
<feColorMatrix type="matrix" values="0 0 0 0 0 0 0 0 0 0 0 0 0 0 0 0 0 0 1 0"/>
<feBlend mode="normal" in2="BackgroundImageFix" result="effect1_dropShadow"/>
<feBlend mode="normal" in="SourceGraphic" in2="effect1_dropShadow" result="shape"/>
</filter>
<filter id="filter1_d" x="549" y="63.8224" width="41.6776" height="59.068" filterUnits="userSpaceOnUse" color-interpolation-filters="sRGB">
<feFlood flood-opacity="0" result="BackgroundImageFix"/>
<feColorMatrix in="SourceAlpha" type="matrix" values="0 0 0 0 0 0 0 0 0 0 0 0 0 0 0 0 0 0 127 0"/>
<feOffset dx="2" dy="4"/>
<feColorMatrix type="matrix" values="0 0 0 0 0 0 0 0 0 0 0 0 0 0 0 0 0 0 1 0"/>
<feBlend mode="normal" in2="BackgroundImageFix" result="effect1_dropShadow"/>
<feBlend mode="normal" in="SourceGraphic" in2="effect1_dropShadow" result="shape"/>
</filter>
<filter id="filter2_d" x="137" y="361" width="42" height="46" filterUnits="userSpaceOnUse" color-interpolation-filters="sRGB">
<feFlood flood-opacity="0" result="BackgroundImageFix"/>
<feColorMatrix in="SourceAlpha" type="matrix" values="0 0 0 0 0 0 0 0 0 0 0 0 0 0 0 0 0 0 127 0"/>
<feOffset dy="4"/>
<feColorMatrix type="matrix" values="0 0 0 0 0 0 0 0 0 0 0 0 0 0 0 0 0 0 1 0"/>
<feBlend mode="normal" in2="BackgroundImageFix" result="effect1_dropShadow"/>
<feBlend mode="normal" in="SourceGraphic" in2="effect1_dropShadow" result="shape"/>
</filter>
<clipPath id="clip0">
<rect width="136" height="136" fill="white" transform="translate(676 24)"/>
</clipPath>
<clipPath id="clip1">
<rect width="270" height="136" fill="white" transform="translate(308 328)"/>
</clipPath>
<clipPath id="clip2">
<rect width="283" height="246" fill="white" transform="translate(295 280)"/>
</clipPath>
<clipPath id="clip3">
<rect width="195" height="136" fill="white" transform="translate(465 176)"/>
</clipPath>
<clipPath id="clip4">
<rect width="125" height="118" fill="white" transform="translate(246 185)"/>
</clipPath>
</defs>
</svg>
